# xmcd CD database file
# Copyright (C) 1996 Ti Kan
#
# Track frame offsets:
#	150
#	12437
#	24232
#	34172
#	45565
#	57655
#	66107
#	76460
#	89580
#	102815
#	115704
#	125365
#
# Disc length: 1835 seconds
#
# Revision: 1
# Processed by: cddbd v1.4b41PL1 Copyright (c) Steve Scherf et al.
# Submitted via: EasyCD 2.21 - (C) 1996 Greg Leichner
#
DISCID=9707290c
DTITLE=Various Artist - Regal Legendary Country
DYEAR=1900
DGENRE=
TTITLE0=Stand by Your Man
TTITLE1=Elvira
TTITLE2=I Can't Stop Loving You
TTITLE3=The Heart You Break May Be Your Own
TTITLE4=Letter to Heaven
TTITLE5=Blues is th Way I Feel
TTITLE6=White Lightning
TTITLE7=Ruby, Don't Take Your Love to Town
TTITLE8=I Just Don't Understand
TTITLE9=Four in the Morning
TTITLE10=This Old House
TTITLE11=Wasted Days and Wasted Nights
EXTD=
EXTT0=
EXTT1=
EXTT2=
EXTT3=
EXTT4=
EXTT5=
EXTT6=
EXTT7=
EXTT8=
EXTT9=
EXTT10=
EXTT11=
PLAYORDER=
